<svg width="28" height="28" viewBox="0 0 28 28" fill="none" xmlns="http://www.w3.org/2000/svg">
<path d="M14 2.5C20.3514 2.5 25.5 7.64873 25.5 14C25.5 20.3514 20.3514 25.5 14 25.5C7.64873 25.5 2.5 20.3514 2.5 14C2.5 7.64873 7.64873 2.5 14 2.5ZM14 4.5C8.7533 4.5 4.5 8.7533 4.5 14C4.5 19.2468 8.75329 23.5 14 23.5C19.2468 23.5 23.5 19.2468 23.5 14C23.5 8.75329 19.2468 4.5 14 4.5ZM14 8.1543C14.5523 8.1543 15 8.60201 15 9.1543V13H18.8467L18.9492 13.0049C19.4531 13.0565 19.8467 13.4825 19.8467 14C19.8467 14.5175 19.4531 14.9435 18.9492 14.9951L18.8467 15H15V18.8467C14.9997 19.3987 14.5521 19.8467 14 19.8467C13.4479 19.8467 13.0003 19.3987 13 18.8467V15H9.1543C8.60201 15 8.1543 14.5523 8.1543 14C8.1543 13.4477 8.60201 13 9.1543 13H13V9.1543C13 8.60201 13.4477 8.1543 14 8.1543Z" fill="currentColor"/>
</svg>
