<svg width="28" height="28" viewBox="0 0 28 28" fill="none" xmlns="http://www.w3.org/2000/svg">
<path d="M23 19.25H21.875C20.4253 19.25 19.25 18.0747 19.25 16.625C19.25 18.0747 18.0747 19.25 16.625 19.25C15.1753 19.25 14 18.0747 14 16.625C14 18.0747 12.8247 19.25 11.375 19.25C9.92525 19.25 8.75 18.0747 8.75 16.625C8.75 18.0747 7.57475 19.25 6.125 19.25H5" stroke="currentColor" stroke-width="1.5" stroke-linecap="round" stroke-linejoin="round"/>
<path d="M5 21.5V14C5 13.1716 5.67158 12.5 6.5 12.5H21.5C22.3284 12.5 23 13.1716 23 14V21.5C23 22.3284 22.3284 23 21.5 23H6.5C5.67158 23 5 22.3284 5 21.5Z" stroke="currentColor" stroke-width="1.5" stroke-linecap="round" stroke-linejoin="round"/>
<path d="M8.75 7.625C8.75 8.66054 7.91054 9.5 6.875 9.5C5.83946 9.5 5 8.66054 5 7.625C5 6.58946 6.875 5 6.875 5C6.875 5 8.75 6.58946 8.75 7.625Z" stroke="currentColor" stroke-width="1.5" stroke-linecap="round" stroke-linejoin="round"/>
<path d="M23 7.625C23 8.66054 22.1606 9.5 21.125 9.5C20.0894 9.5 19.25 8.66054 19.25 7.625C19.25 6.58946 21.125 5 21.125 5C21.125 5 23 6.58946 23 7.625Z" stroke="currentColor" stroke-width="1.5" stroke-linecap="round" stroke-linejoin="round"/>
<path d="M15.875 7.625C15.875 8.66054 15.0355 9.5 14 9.5C12.9645 9.5 12.125 8.66054 12.125 7.625C12.125 6.58946 14 5 14 5C14 5 15.875 6.58946 15.875 7.625Z" stroke="currentColor" stroke-width="1.5" stroke-linecap="round" stroke-linejoin="round"/>
</svg>
