<svg width="28" height="28" viewBox="0 0 28 28" fill="none" xmlns="http://www.w3.org/2000/svg">
<path d="M8 13H20" stroke="#1D1C1D" stroke-width="1.5" stroke-linecap="round" stroke-linejoin="round"/>
<path d="M8 19H14" stroke="#1D1C1D" stroke-width="1.5" stroke-linecap="round" stroke-linejoin="round"/>
<path d="M4 5C3.46956 5 2.96086 5.21072 2.58578 5.58578C2.21072 5.96086 2 6.46956 2 7V24C2 24.5304 2.21072 25.0392 2.58578 25.4142C2.96086 25.7892 3.46956 26 4 26H24C24.5304 26 25.0392 25.7892 25.4142 25.4142C25.7892 25.0392 26 24.5304 26 24V7C26 6.46956 25.7892 5.96086 25.4142 5.58578C25.0392 5.21072 24.5304 5 24 5H4Z" stroke="#1D1C1D" stroke-width="1.5" stroke-linecap="round" stroke-linejoin="round"/>
<path d="M7 2V8" stroke="#1D1C1D" stroke-width="1.5" stroke-linecap="round" stroke-linejoin="round"/>
<path d="M21 2V8" stroke="#1D1C1D" stroke-width="1.5" stroke-linecap="round" stroke-linejoin="round"/>
</svg>
