<svg width="33" height="32" viewBox="0 0 33 32" fill="none" xmlns="http://www.w3.org/2000/svg">
<path d="M25.5833 26H6.91667V11.3333H25.5833M21.5833 2V4.66667H10.9167V2H8.25V4.66667H6.91667C5.45 4.66667 4.25 5.86667 4.25 7.33333V26C4.25 27.48 5.45 28.6667 6.91667 28.6667H25.5833C27.0633 28.6667 28.25 27.48 28.25 26V7.33333C28.25 5.86667 27.0633 4.66667 25.5833 4.66667H24.25V2M14.7567 16.6667H9.94333L13.8367 19.48L12.3567 24.08L16.25 21.24L20.1433 24.08L18.65 19.4933L22.5433 16.6667H17.7433L16.25 12.08L14.7567 16.6667Z" fill="currentColor"/>
</svg>
