<svg width="28" height="28" viewBox="0 0 28 28" fill="none" xmlns="http://www.w3.org/2000/svg">
<path d="M12.25 13.125H19.25" stroke="currentColor" stroke-width="1.5" stroke-linecap="round" stroke-linejoin="round"/>
<path d="M12.25 18.375H15.75" stroke="currentColor" stroke-width="1.5" stroke-linecap="round" stroke-linejoin="round"/>
<path d="M7.875 13.125H8.75" stroke="currentColor" stroke-width="1.5" stroke-linecap="round" stroke-linejoin="round"/>
<path d="M7.875 18.375H8.75" stroke="currentColor" stroke-width="1.5" stroke-linecap="round" stroke-linejoin="round"/>
<path d="M5.25 6.125C4.78587 6.125 4.34075 6.30938 4.01256 6.63756C3.68438 6.96575 3.5 7.41087 3.5 7.875V22.75C3.5 23.2141 3.68438 23.6593 4.01256 23.9874C4.34075 24.3155 4.78587 24.5 5.25 24.5H22.75C23.2141 24.5 23.6593 24.3155 23.9874 23.9874C24.3155 23.6593 24.5 23.2141 24.5 22.75V7.875C24.5 7.41087 24.3155 6.96575 23.9874 6.63756C23.6593 6.30938 23.2141 6.125 22.75 6.125H5.25Z" stroke="currentColor" stroke-width="1.5" stroke-linecap="round" stroke-linejoin="round"/>
<path d="M7.875 3.5V8.75" stroke="currentColor" stroke-width="1.5" stroke-linecap="round" stroke-linejoin="round"/>
<path d="M20.125 3.5V8.75" stroke="currentColor" stroke-width="1.5" stroke-linecap="round" stroke-linejoin="round"/>
</svg>
