<svg width="28" height="28" viewBox="0 0 28 28" fill="none" xmlns="http://www.w3.org/2000/svg">
<path d="M19.833 3C20.3853 3 20.833 3.44772 20.833 4V5.5H22.333C23.0402 5.5 23.7187 5.7811 24.2188 6.28125L24.3965 6.47656C24.7851 6.95098 25 7.54811 25 8.16699V22.333C25 23.0403 24.7188 23.7187 24.2188 24.2188C23.7187 24.7188 23.0403 25 22.333 25H5.66699C5.04811 25 4.45098 24.7851 3.97656 24.3965L3.78125 24.2188C3.2811 23.7187 3 23.0402 3 22.333V8.16699C3 7.45973 3.28119 6.78134 3.78125 6.28125L3.97656 6.10352C4.45105 5.7148 5.0482 5.5 5.66699 5.5H7.16699V4C7.16699 3.44772 7.61471 3 8.16699 3C8.71914 3.00016 9.16699 3.44782 9.16699 4V5.5H18.833V4C18.833 3.44782 19.2809 3.00016 19.833 3ZM5.66699 7.5C5.53436 7.5 5.40563 7.53977 5.29688 7.6123L5.19531 7.69531C5.07029 7.82036 5 7.99019 5 8.16699V22.333C5 22.5098 5.07039 22.6798 5.19531 22.8047L5.29688 22.8877C5.40567 22.9603 5.53443 23 5.66699 23H22.333C22.5097 23 22.6797 22.9297 22.8047 22.8047C22.9297 22.6797 23 22.5097 23 22.333V8.16699C23 8.03443 22.9603 7.90567 22.8877 7.79688L22.8047 7.69531C22.6798 7.57039 22.5098 7.5 22.333 7.5H20.833V9C20.833 9.55228 20.3853 10 19.833 10C19.2809 9.99984 18.833 9.55218 18.833 9V7.5H9.16699V9C9.16699 9.55218 8.71914 9.99984 8.16699 10C7.61471 10 7.16699 9.55228 7.16699 9V7.5H5.66699ZM9.10254 17.1719C9.60666 17.2232 10 17.6493 10 18.167C9.99983 18.6845 9.60659 19.1108 9.10254 19.1621L9 19.167H8.16699C7.61482 19.167 7.16717 18.7191 7.16699 18.167C7.16699 17.6147 7.61471 17.167 8.16699 17.167H9L9.10254 17.1719ZM15.7686 17.1719C16.2728 17.2231 16.666 17.6492 16.666 18.167C16.6658 18.6846 16.2727 19.1109 15.7686 19.1621L15.666 19.167H12.333C11.781 19.1668 11.3332 18.719 11.333 18.167C11.333 17.6148 11.7809 17.1672 12.333 17.167H15.666L15.7686 17.1719ZM9.10254 12.1719C9.60666 12.2232 10 12.6493 10 13.167C9.99983 13.6845 9.60659 14.1108 9.10254 14.1621L9 14.167H8.16699C7.61482 14.167 7.16717 13.7191 7.16699 13.167C7.16699 12.6147 7.61471 12.167 8.16699 12.167H9L9.10254 12.1719ZM19.1016 12.1719C19.606 12.2229 20 12.6491 20 13.167C19.9998 13.6847 19.6059 14.1111 19.1016 14.1621L19 14.167H12.333C11.781 14.1668 11.3332 13.719 11.333 13.167C11.333 12.6148 11.7809 12.1672 12.333 12.167H19L19.1016 12.1719Z" fill="currentColor"/>
</svg>
