<svg width="28" height="28" viewBox="0 0 28 28" fill="none" xmlns="http://www.w3.org/2000/svg">
<path d="M11.5 5.66669H5.66667C4.7462 5.66669 4 6.41289 4 7.33335V22.3334C4 23.2539 4.7462 24 5.66667 24H20.6667C21.5872 24 22.3333 23.2539 22.3333 22.3334V16.5" stroke="black" stroke-width="1.42857" stroke-linecap="round" stroke-linejoin="round"/>
<path d="M14.8288 17.2708L9.83105 18.1667L10.664 13.1231L19.3757 4.49075C19.5305 4.33525 19.7148 4.21182 19.9178 4.1276C20.1208 4.04337 20.3385 4 20.5585 4C20.7783 4 20.9962 4.04337 21.1992 4.1276C21.4022 4.21182 21.5865 4.33525 21.7413 4.49075L23.5072 6.24937C23.6633 6.4036 23.7873 6.58708 23.8718 6.78927C23.9563 6.99143 24 7.20828 24 7.4273C24 7.64632 23.9563 7.86317 23.8718 8.06533C23.7873 8.26752 23.6633 8.451 23.5072 8.60523L14.8288 17.2708Z" stroke="black" stroke-width="1.42857" stroke-linecap="round" stroke-linejoin="round"/>
</svg>
