<svg width="32" height="32" viewBox="0 0 32 32" fill="none" xmlns="http://www.w3.org/2000/svg">
<path d="M16 2C14.249 2 12.5152 2.34488 10.8975 3.01494C9.27987 3.685 7.81001 4.66713 6.5719 5.90524C4.07141 8.40573 2.66666 11.7971 2.66666 15.3333C2.66666 18.8696 4.07141 22.2609 6.5719 24.7614C7.81001 25.9995 9.27987 26.9817 10.8975 27.6517C12.5152 28.3218 14.249 28.6667 16 28.6667C19.5362 28.6667 22.9276 27.2619 25.4281 24.7614C27.9286 22.2609 29.3333 18.8696 29.3333 15.3333C29.3333 13.5824 28.9884 11.8486 28.3184 10.2309C27.6483 8.61321 26.6662 7.14336 25.4281 5.90524C24.19 4.66713 22.7201 3.685 21.1024 3.01494C19.4848 2.34488 17.7509 2 16 2ZM16 10.52C18.0933 11.8667 20.56 12.6667 23.2267 12.6667C24.2667 12.6667 25.2667 12.5467 26.2267 12.32C26.5067 13.2667 26.6667 14.28 26.6667 15.3333C26.6667 21.2133 21.88 26 16 26C12 26 8.51999 23.7867 6.66666 20.52L8.99999 18V16.6667C8.99999 16.2246 9.17558 15.8007 9.48814 15.4882C9.80071 15.1756 10.2246 15 10.6667 15C11.1087 15 11.5326 15.1756 11.8452 15.4882C12.1577 15.8007 12.3333 16.2246 12.3333 16.6667V18H16M21.3333 15C20.8913 15 20.4674 15.1756 20.1548 15.4882C19.8423 15.8007 19.6667 16.2246 19.6667 16.6667C19.6667 17.1087 19.8423 17.5326 20.1548 17.8452C20.4674 18.1577 20.8913 18.3333 21.3333 18.3333C21.7753 18.3333 22.1993 18.1577 22.5118 17.8452C22.8244 17.5326 23 17.1087 23 16.6667C23 16.2246 22.8244 15.8007 22.5118 15.4882C22.1993 15.1756 21.7753 15 21.3333 15Z" fill="currentColor"/>
</svg>
