<svg width="28" height="28" viewBox="0 0 28 28" fill="none" xmlns="http://www.w3.org/2000/svg">
<path d="M14.175 16.2696C14.37 16.2947 14.5688 16.3077 14.7707 16.3077C17.3197 16.3077 19.386 14.2413 19.386 11.6923C19.386 9.14329 17.3197 7.0769 14.7707 7.0769C12.2217 7.0769 10.1553 9.14329 10.1553 11.6923C10.1553 12.6359 10.4385 13.5134 10.9245 14.2444" stroke="currentColor" stroke-width="1.5" stroke-linecap="round" stroke-linejoin="round"/>
<path d="M10.1553 18.6154V24" stroke="currentColor" stroke-width="1.5" stroke-linecap="round" stroke-linejoin="round"/>
<path d="M7.84766 21.6923H12.463" stroke="currentColor" stroke-width="1.5" stroke-linecap="round" stroke-linejoin="round"/>
<path d="M22.4629 4L18.0342 8.42874" stroke="currentColor" stroke-width="1.5" stroke-linecap="round" stroke-linejoin="round"/>
<path d="M18.6172 4H22.4633V7.84615" stroke="currentColor" stroke-width="1.5" stroke-linecap="round" stroke-linejoin="round"/>
<path d="M10.7369 9.42092C10.5464 9.39698 10.3524 9.38464 10.1554 9.38464C7.60642 9.38464 5.54004 11.451 5.54004 14C5.54004 16.549 7.60642 18.6154 10.1554 18.6154C12.7044 18.6154 14.7708 16.549 14.7708 14C14.7708 13.0564 14.4876 12.1792 14.0016 11.4482" stroke="currentColor" stroke-width="1.5" stroke-linecap="round" stroke-linejoin="round"/>
</svg>
