<svg width="28" height="28" viewBox="0 0 28 28" fill="none" xmlns="http://www.w3.org/2000/svg">
<path d="M13.3681 3.22434C13.7609 2.9044 14.3401 2.92674 14.706 3.2927L26.5244 15.1111L26.5927 15.1872C26.9127 15.5798 26.89 16.1591 26.5244 16.5251C26.1582 16.8913 25.5783 16.914 25.1855 16.5935L25.1103 16.5251L23.1797 14.5945V23.9997C23.1796 24.5519 22.7319 24.9997 22.1797 24.9997H5.81638C5.26423 24.9996 4.81647 24.5519 4.81638 23.9997V14.5964L2.88767 16.5251C2.49719 16.9155 1.86411 16.9155 1.4736 16.5251C1.08311 16.1346 1.08317 15.5016 1.4736 15.1111L13.292 3.2927L13.3681 3.22434ZM6.81638 12.5964V22.9997H12.998V18.5456C12.998 17.9935 13.4459 17.5459 13.998 17.5456C14.5503 17.5456 14.998 17.9933 14.998 18.5456V22.9997H21.1797V12.5945L13.999 5.41379L6.81638 12.5964Z" fill="currentColor" fill-opacity="1"/>
</svg>
