<svg width="33" height="32" viewBox="0 0 33 32" fill="none" xmlns="http://www.w3.org/2000/svg">
<path d="M26.0833 21V7.66667H7.41667V21H12.75C12.75 23.2133 14.5367 25 16.75 25C18.9633 25 20.75 23.2133 20.75 21H26.0833ZM26.0833 5C27.55 5 28.75 6.2 28.75 7.66667V26.3333C28.75 27.8 27.55 29 26.0833 29H7.41667C5.93667 29 4.75 27.8 4.75 26.3333V7.66667C4.75 6.2 5.93667 5 7.41667 5H26.0833ZM10.0833 18.3333V15.6667H23.4167V18.3333H10.0833ZM10.0833 13V10.3333H23.4167V13H10.0833Z" fill="currentColor"/>
</svg>
