<svg width="28" height="28" viewBox="0 0 28 28" fill="none" xmlns="http://www.w3.org/2000/svg">
<path d="M6.1483 13.2857H4.71973" stroke="currentColor" stroke-width="1.5" stroke-linecap="round" stroke-linejoin="round"/>
<path d="M21.8623 13.2857H23.2909" stroke="currentColor" stroke-width="1.5" stroke-linecap="round" stroke-linejoin="round"/>
<path d="M19.5615 7.72993L20.5717 6.71979" stroke="currentColor" stroke-width="1.5" stroke-linecap="round" stroke-linejoin="round"/>
<path d="M8.44961 7.72993L7.43945 6.71979" stroke="currentColor" stroke-width="1.5" stroke-linecap="round" stroke-linejoin="round"/>
<path d="M14.0059 5.42857V4" stroke="currentColor" stroke-width="1.5" stroke-linecap="round" stroke-linejoin="round"/>
<path d="M14.0056 7.92859C11.0469 7.92859 8.64844 10.3271 8.64844 13.2857C8.64844 15.4825 9.97068 17.3704 11.8627 18.1972V20.4286C11.8627 20.823 12.1825 21.1429 12.577 21.1429H15.4342C15.8286 21.1429 16.1484 20.823 16.1484 20.4286V18.1972C18.0405 17.3704 19.3627 15.4825 19.3627 13.2857C19.3627 10.3271 16.9643 7.92859 14.0056 7.92859Z" stroke="currentColor" stroke-width="1.5" stroke-linecap="round" stroke-linejoin="round"/>
<path d="M11.8623 24H16.148" stroke="currentColor" stroke-width="1.5" stroke-linecap="round" stroke-linejoin="round"/>
</svg>
