<svg width="28" height="28" viewBox="0 0 28 28" fill="none" xmlns="http://www.w3.org/2000/svg">
<path d="M24.4999 17.2308C24.4999 21.2693 19.6538 24.5 19.6538 24.5C19.6538 24.5 14.8076 21.2693 14.8076 17.2308C14.8076 14.5543 16.9773 12.3846 19.6538 12.3846C22.3303 12.3846 24.4999 14.5543 24.4999 17.2308Z" stroke="currentColor" stroke-width="1.5" stroke-linecap="round" stroke-linejoin="round"/>
<path d="M19.6534 18.0385C20.0994 18.0385 20.4611 17.6769 20.4611 17.2308C20.4611 16.7847 20.0994 16.4231 19.6534 16.4231C19.2074 16.4231 18.8457 16.7847 18.8457 17.2308C18.8457 17.6769 19.2074 18.0385 19.6534 18.0385Z" stroke="currentColor" stroke-width="1.5" stroke-linecap="round" stroke-linejoin="round"/>
<path d="M16.4229 5.11536V9.15382" stroke="currentColor" stroke-width="1.5" stroke-linecap="round" stroke-linejoin="round"/>
<path d="M9.96191 3.5V21.2692" stroke="currentColor" stroke-width="1.5" stroke-linecap="round" stroke-linejoin="round"/>
<path d="M22.8846 9.15385V5.56895C22.8846 4.51803 21.897 3.74691 20.8775 4.00179L16.4231 5.11538L9.96154 3.5L4.72359 4.80948C4.00448 4.98927 3.5 5.63539 3.5 6.37664V20.8156C3.5 21.8666 4.48763 22.6378 5.50718 22.3829L9.96154 21.2692L12.7751 21.9726" stroke="currentColor" stroke-width="1.5" stroke-linecap="round" stroke-linejoin="round"/>
</svg>
