<svg width="28" height="28" viewBox="0 0 28 28" fill="none" xmlns="http://www.w3.org/2000/svg">
<path d="M17.9375 12.6875C16.4877 12.6875 15.3125 11.5123 15.3125 10.0625C15.3125 8.61275 16.4877 7.4375 17.9375 7.4375C19.3872 7.4375 20.5625 8.61275 20.5625 10.0625C20.5625 11.5123 19.3872 12.6875 17.9375 12.6875Z" stroke="currentColor" stroke-width="1.5" stroke-linecap="round" stroke-linejoin="round"/>
<path d="M22.8846 24.5H5.11539C4.22324 24.5 3.5 23.7767 3.5 22.8846V5.11539C3.5 4.22324 4.22324 3.5 5.11539 3.5H22.8846C23.7767 3.5 24.5 4.22324 24.5 5.11539V22.8846C24.5 23.7767 23.7767 24.5 22.8846 24.5Z" stroke="currentColor" stroke-width="1.5" stroke-linecap="round" stroke-linejoin="round"/>
<path d="M22.9014 24.5L10.2442 11.8428L3.5 18.587" stroke="currentColor" stroke-width="1.5" stroke-linecap="round" stroke-linejoin="round"/>
</svg>
