<svg width="28" height="28" viewBox="0 0 28 28" fill="none" xmlns="http://www.w3.org/2000/svg">
<path d="M21.6923 20.3077L23.0987 18.9012C23.6758 18.3242 24 17.5415 24 16.7255V9.28205C24 8.574 23.426 8 22.718 8C21.3018 8 20.1538 9.14798 20.1538 10.5641V14.2529" stroke="currentColor" stroke-width="1.5" stroke-linecap="round" stroke-linejoin="round"/>
<path d="M15.5386 20.3077V17.868C15.5386 17.46 15.7007 17.0686 15.9892 16.7801L18.2309 14.5384C18.8681 13.9012 19.9013 13.9012 20.5386 14.5384C21.1758 15.1757 21.1758 16.2089 20.5386 16.8461L19.3847 18" stroke="currentColor" stroke-width="1.5" stroke-linecap="round" stroke-linejoin="round"/>
<path d="M6.30769 20.3077L4.90122 18.9012C4.32418 18.3242 4 17.5415 4 16.7255V9.28205C4 8.574 4.57399 8 5.28205 8C6.69817 8 7.84615 9.14798 7.84615 10.5641V14.2529" stroke="currentColor" stroke-width="1.5" stroke-linecap="round" stroke-linejoin="round"/>
<path d="M12.4613 20.3078V17.8681C12.4613 17.4601 12.2992 17.0689 12.0107 16.7803L9.76903 14.5386C9.13178 13.9014 8.09858 13.9014 7.46133 14.5386C6.82409 15.1758 6.82409 16.2091 7.46133 16.8463L8.61518 18.0001" stroke="currentColor" stroke-width="1.5" stroke-linecap="round" stroke-linejoin="round"/>
</svg>
