<svg width="28" height="28" viewBox="0 0 28 28" fill="none" xmlns="http://www.w3.org/2000/svg">
<path d="M20.9229 22.9229H23.9998V22.1537C23.9998 18.859 21.6983 16.1018 18.6152 15.4022" stroke="currentColor" stroke-width="1.5" stroke-linecap="round" stroke-linejoin="round"/>
<path d="M16.3076 6.09694C16.5535 6.03366 16.8112 6 17.0768 6C18.7762 6 20.1538 7.37758 20.1538 9.07692C20.1538 10.7763 18.7762 12.1538 17.0768 12.1538C16.8112 12.1538 16.5535 12.1202 16.3076 12.0569" stroke="currentColor" stroke-width="1.5" stroke-linecap="round" stroke-linejoin="round"/>
<path d="M10.9231 15.2308C7.09957 15.2308 4 18.3303 4 22.1539V22.9231H17.8462V22.1539C17.8462 18.3303 14.7466 15.2308 10.9231 15.2308Z" stroke="currentColor" stroke-width="1.5" stroke-linecap="round" stroke-linejoin="round"/>
<path d="M10.9231 12.1538C12.6225 12.1538 14 10.7763 14 9.07692C14 7.37758 12.6225 6 10.9231 6C9.22378 6 7.84619 7.37758 7.84619 9.07692C7.84619 10.7763 9.22378 12.1538 10.9231 12.1538Z" stroke="currentColor" stroke-width="1.5" stroke-linecap="round" stroke-linejoin="round"/>
</svg>
