<svg width="28" height="28" viewBox="0 0 28 28" fill="none" xmlns="http://www.w3.org/2000/svg">
<path d="M14 24.5C19.7991 24.5 24.5 19.7991 24.5 14C24.5 8.20101 19.7991 3.5 14 3.5C8.20101 3.5 3.5 8.20101 3.5 14C3.5 19.7991 8.20101 24.5 14 24.5Z" stroke="currentColor" stroke-width="1.5" stroke-linecap="round" stroke-linejoin="round"/>
<path d="M16.749 11.1283C16.6544 10.8608 16.5085 10.6175 16.3231 10.4103C15.9287 9.9697 15.3556 9.69238 14.7177 9.69238H13.0505C11.9887 9.69238 11.1279 10.5532 11.1279 11.615C11.1279 12.5185 11.757 13.3001 12.6397 13.4932L15.1779 14.0484C16.1667 14.2647 16.8715 15.141 16.8715 16.1531C16.8715 17.3427 15.9072 18.3078 14.7177 18.3078H13.2818C12.344 18.3078 11.5462 17.7084 11.2505 16.8719" stroke="currentColor" stroke-width="1.5" stroke-linecap="round" stroke-linejoin="round"/>
<path d="M14 9.69229V7.53845" stroke="currentColor" stroke-width="1.5" stroke-linecap="round" stroke-linejoin="round"/>
<path d="M14 20.4615V18.3076" stroke="currentColor" stroke-width="1.5" stroke-linecap="round" stroke-linejoin="round"/>
</svg>
