<svg width="28" height="28" viewBox="0 0 28 28" fill="none" xmlns="http://www.w3.org/2000/svg">
<path d="M8.58008 15.6154C9.27515 17.9508 11.4386 19.6538 13.9998 19.6538C16.561 19.6538 18.7245 17.9508 19.4196 15.6154" stroke="currentColor" stroke-width="1.5" stroke-linecap="round" stroke-linejoin="round"/>
<path d="M14 24.5C19.7991 24.5 24.5 19.7991 24.5 14C24.5 8.20101 19.7991 3.5 14 3.5C8.20101 3.5 3.5 8.20101 3.5 14C3.5 19.7991 8.20101 24.5 14 24.5Z" stroke="currentColor" stroke-width="1.5" stroke-linecap="round" stroke-linejoin="round"/>
<path d="M10.3658 11.5769C10.1427 11.5769 9.96191 11.3961 9.96191 11.1731C9.96191 10.95 10.1427 10.7692 10.3658 10.7692" stroke="currentColor" stroke-width="1.5" stroke-linecap="round" stroke-linejoin="round"/>
<path d="M10.3662 11.5769C10.5892 11.5769 10.7701 11.3961 10.7701 11.1731C10.7701 10.95 10.5892 10.7692 10.3662 10.7692" stroke="currentColor" stroke-width="1.5" stroke-linecap="round" stroke-linejoin="round"/>
<path d="M17.6343 11.5769C17.4113 11.5769 17.2305 11.3961 17.2305 11.1731C17.2305 10.95 17.4113 10.7692 17.6343 10.7692" stroke="currentColor" stroke-width="1.5" stroke-linecap="round" stroke-linejoin="round"/>
<path d="M17.6348 11.5769C17.8578 11.5769 18.0386 11.3961 18.0386 11.1731C18.0386 10.95 17.8578 10.7692 17.6348 10.7692" stroke="currentColor" stroke-width="1.5" stroke-linecap="round" stroke-linejoin="round"/>
</svg>
