<svg width="28" height="28" viewBox="0 0 28 28" fill="none" xmlns="http://www.w3.org/2000/svg">
<path d="M22.0769 10.5771C22.6838 10.5771 23.2687 10.7886 23.7341 11.1699L23.9265 11.3428L24.1003 11.5352C24.4814 12.0004 24.6921 12.5855 24.6921 13.1924V19.5713L25.4861 24.3359C25.5424 24.6742 25.4216 25.0177 25.1658 25.2461C24.91 25.4743 24.555 25.5561 24.2253 25.4619L18.7048 23.8848H12.3845C11.7777 23.8847 11.1925 23.674 10.7273 23.293L10.5349 23.1191C10.0445 22.6287 9.76938 21.9629 9.76929 21.2695V13.1924C9.76933 12.4988 10.0446 11.8332 10.5349 11.3428L10.7273 11.1689C11.1926 10.7878 11.7778 10.5772 12.3845 10.5771H22.0769ZM12.3845 12.5771C12.2623 12.5772 12.144 12.6139 12.0437 12.6807L11.95 12.7578C11.8347 12.8732 11.7693 13.0293 11.7693 13.1924V21.2695C11.7694 21.4326 11.8347 21.5889 11.95 21.7041H11.949C12.0645 21.8195 12.2215 21.8847 12.3845 21.8848H18.8464L18.9851 21.8945C19.0309 21.9009 19.0763 21.9101 19.1209 21.9229L23.2527 23.1035L22.7058 19.8184C22.6968 19.7642 22.6922 19.7092 22.6921 19.6543V13.1924C22.6921 13.0294 22.6278 12.8723 22.5125 12.7568V12.7578C22.3972 12.6425 22.2401 12.5771 22.0769 12.5771H12.3845ZM19.6541 2.5C20.3472 2.50012 21.0124 2.77549 21.5027 3.26562L21.6765 3.45801C22.0577 3.92329 22.2693 4.50825 22.2693 5.11523V7.53809C22.2693 8.09027 21.8214 8.53792 21.2693 8.53809C20.7171 8.53793 20.2693 8.09028 20.2693 7.53809V5.11523C20.2693 4.99312 20.2325 4.8747 20.1658 4.77441L20.0886 4.67969C19.9735 4.56475 19.8169 4.50012 19.6541 4.5H6.73023C6.60809 4.50012 6.48958 4.53676 6.38941 4.60352L6.29566 4.68066C6.18042 4.79603 6.11504 4.95219 6.115 5.11523V14.8076C6.115 14.8613 6.11087 14.9149 6.1023 14.9678L6.06422 15.124L5.02613 18.2354L5.6775 18.0703L5.79957 18.0479C5.84026 18.0428 5.88153 18.0401 5.92261 18.04H6.73023L6.83277 18.0449C7.33704 18.0961 7.73023 18.5223 7.73023 19.04C7.73021 19.5578 7.33703 19.984 6.83277 20.0352L6.73023 20.04H6.04859L3.74488 20.623C3.39072 20.7125 3.01598 20.6016 2.76734 20.334C2.5188 20.0662 2.43606 19.6845 2.55152 19.3379L4.115 14.6465V5.11523C4.11504 4.4217 4.39127 3.75604 4.8816 3.26562L5.073 3.09277C5.53829 2.71145 6.12339 2.50014 6.73023 2.5H19.6541ZM18.1404 17.8506C18.6445 17.9018 19.0376 18.3281 19.0378 18.8457C19.0378 19.3635 18.6447 19.7896 18.1404 19.8408L18.0378 19.8457H14.8074C14.2553 19.8455 13.8074 19.3979 13.8074 18.8457C13.8076 18.2937 14.2554 17.8459 14.8074 17.8457H18.0378L18.1404 17.8506ZM19.7556 14.6201C20.2599 14.6712 20.653 15.0975 20.6531 15.6152C20.6531 16.1331 20.26 16.5592 19.7556 16.6104L19.6531 16.6152H14.8074C14.2553 16.615 13.8074 16.1674 13.8074 15.6152C13.8074 15.0631 14.2553 14.6154 14.8074 14.6152H19.6531L19.7556 14.6201Z" fill="currentColor" fill-opacity="1"/>
</svg>
