<svg width="28" height="28" viewBox="0 0 28 28" fill="none" xmlns="http://www.w3.org/2000/svg">
<path d="M6.73175 19.04H5.92405L3.50098 19.6538L5.11636 14.8077V5.11538C5.11636 4.68695 5.28656 4.27608 5.58949 3.97313C5.89244 3.67019 6.30331 3.5 6.73175 3.5H19.6548C20.0832 3.5 20.4942 3.67019 20.7971 3.97313C21.0999 4.27608 21.2702 4.68695 21.2702 5.11538V7.53846" stroke="currentColor" stroke-width="1.5" stroke-linecap="round" stroke-linejoin="round"/>
<path d="M18.8474 22.8846L24.5013 24.5L23.6936 19.6539V13.1923C23.6936 12.7639 23.5233 12.353 23.2204 12.0501C22.9176 11.7471 22.5066 11.5769 22.0782 11.5769H12.3859C11.9575 11.5769 11.5466 11.7471 11.2436 12.0501C10.9407 12.353 10.7705 12.7639 10.7705 13.1923V21.2692C10.7705 21.6976 10.9407 22.1086 11.2436 22.4115C11.5466 22.7144 11.9575 22.8846 12.3859 22.8846H18.8474Z" stroke="currentColor" stroke-width="1.5" stroke-linecap="round" stroke-linejoin="round"/>
<path d="M14.8086 15.6154H19.6547" stroke="currentColor" stroke-width="1.5" stroke-linecap="round" stroke-linejoin="round"/>
<path d="M14.8086 18.8462H18.0394" stroke="currentColor" stroke-width="1.5" stroke-linecap="round" stroke-linejoin="round"/>
</svg>
