<svg width="28" height="28" viewBox="0 0 28 28" fill="none" xmlns="http://www.w3.org/2000/svg">
<path d="M4 20.1539L7.75958 23.2868C8.31255 23.7477 9.00958 24 9.72938 24H19.6411C20.3491 24 20.9231 23.426 20.9231 22.718C20.9231 21.3019 19.7751 20.1539 18.359 20.1539H11.4681" stroke="currentColor" stroke-width="1.5" stroke-linecap="round" stroke-linejoin="round"/>
<path d="M8.61538 18.6154L9.76923 19.7692C10.4065 20.4065 11.4397 20.4065 12.0769 19.7692C12.7142 19.132 12.7142 18.0988 12.0769 17.4615L10.2858 15.6704C9.70878 15.0934 8.92617 14.7692 8.11011 14.7692H4" stroke="currentColor" stroke-width="1.5" stroke-linecap="round" stroke-linejoin="round"/>
<path d="M19.0116 4.24103L20.3347 6.90257C20.3643 6.96988 20.4113 7.02814 20.4707 7.07138C20.5302 7.11463 20.6 7.14132 20.6731 7.14872L23.6116 7.59488C23.6956 7.6058 23.7748 7.64043 23.8399 7.69469C23.905 7.74897 23.9531 7.82063 23.979 7.90132C24.0048 7.98202 24.0071 8.06838 23.9856 8.15034C23.9642 8.23229 23.9199 8.30643 23.8577 8.36411L21.6885 10.4256C21.6562 10.4874 21.6393 10.556 21.6393 10.6256C21.6393 10.6953 21.6562 10.7639 21.6885 10.8256L22.1039 13.7487C22.1216 13.8332 22.1145 13.921 22.0833 14.0015C22.052 14.082 21.9982 14.1517 21.9282 14.2022C21.8582 14.2527 21.775 14.2818 21.6888 14.286C21.6025 14.2901 21.517 14.2692 21.4423 14.2256L18.827 12.841C18.7593 12.8104 18.6859 12.7946 18.6116 12.7946C18.5373 12.7946 18.4639 12.8104 18.3962 12.841L15.7809 14.2256C15.7063 14.2692 15.6207 14.2901 15.5345 14.286C15.4483 14.2818 15.3651 14.2527 15.2951 14.2022C15.225 14.1517 15.1711 14.082 15.1399 14.0015C15.1088 13.921 15.1016 13.8332 15.1193 13.7487L15.6116 10.8256C15.6328 10.7578 15.6368 10.6858 15.6234 10.616C15.61 10.5462 15.5795 10.4808 15.5347 10.4256L13.3655 8.34872C13.3079 8.29043 13.2675 8.21743 13.2487 8.13772C13.2299 8.058 13.2334 7.97466 13.2589 7.8968C13.2843 7.81894 13.3306 7.74958 13.3929 7.69632C13.4551 7.64308 13.5308 7.60797 13.6116 7.59488L16.5501 7.16411C16.6232 7.15671 16.6931 7.13002 16.7526 7.08677C16.812 7.04352 16.859 6.98526 16.8885 6.91795L18.2116 4.25641C18.247 4.18107 18.3028 4.11713 18.3726 4.07184C18.4425 4.02654 18.5236 4.00168 18.6068 4.00008C18.69 3.99848 18.772 4.0202 18.8436 4.06278C18.9151 4.10536 18.9733 4.1671 19.0116 4.24103Z" stroke="currentColor" stroke-width="1.5" stroke-linecap="round" stroke-linejoin="round"/>
</svg>
