<svg width="16" height="16" viewBox="0 0 16 16" fill="none" xmlns="http://www.w3.org/2000/svg">
<path fill-rule="evenodd" clip-rule="evenodd" d="M8.24023 2C8.07011 2 7.90353 2.04867 7.76017 2.14027C7.61864 2.23069 7.50556 2.35923 7.4339 2.51103L6.07278 5.25895C6.0701 5.26435 6.06755 5.26981 6.0651 5.27532C6.06449 5.27668 6.06353 5.27788 6.06233 5.27876C6.06112 5.27964 6.05969 5.2802 6.05821 5.28036C6.05299 5.28094 6.04778 5.28161 6.04258 5.28238L3.0456 5.72638C2.87995 5.74249 2.72199 5.80465 2.58969 5.90599C2.45279 6.01085 2.34924 6.15316 2.29157 6.31567C2.2339 6.47818 2.2246 6.65393 2.26478 6.82163C2.30481 6.98867 2.39223 7.14059 2.51652 7.25912L4.71032 9.3758L4.71532 9.38054C4.71845 9.38347 4.72081 9.38713 4.72216 9.3912C4.72352 9.39527 4.72384 9.39961 4.72308 9.40383L4.7226 9.40664L4.19983 12.466C4.17111 12.6319 4.1893 12.8032 4.25258 12.959C4.31595 13.1152 4.42188 13.2504 4.55831 13.3494C4.69475 13.4482 4.85621 13.5069 5.02432 13.5185C5.1921 13.5302 5.35978 13.4946 5.50837 13.4159L5.50927 13.4154L8.20951 11.9883C8.21919 11.9841 8.22966 11.9819 8.24025 11.9819C8.25084 11.9819 8.2613 11.9841 8.27099 11.9883L10.9712 13.4154C11.1199 13.4944 11.2882 13.5303 11.4561 13.5185C11.6243 13.5069 11.7857 13.4482 11.9221 13.3494C12.0586 13.2504 12.1645 13.1152 12.2279 12.959C12.2911 12.8032 12.3095 12.6327 12.2808 12.467L12.2807 12.466L11.7578 9.40663L11.7574 9.40383C11.7566 9.39961 11.757 9.39527 11.7583 9.3912C11.7597 9.38714 11.7621 9.38347 11.7651 9.38054L11.7701 9.3758L13.964 7.2591C14.0882 7.14057 14.1757 6.98867 14.2157 6.82163C14.2559 6.65393 14.2466 6.47818 14.1889 6.31567C14.1312 6.15316 14.0277 6.01085 13.8908 5.90599C13.7585 5.80465 13.6005 5.74249 13.4349 5.72638L10.4379 5.28238C10.4327 5.28161 10.4275 5.28094 10.4223 5.28036C10.4208 5.2802 10.4194 5.27964 10.4181 5.27876C10.4169 5.27788 10.416 5.27668 10.4154 5.27532C10.4129 5.26981 10.4104 5.26435 10.4077 5.25895L9.04657 2.51102C8.97491 2.35922 8.86183 2.23069 8.72031 2.14027C8.57694 2.04867 8.41036 2 8.24023 2Z" fill="currentColor"/>
</svg>
