<svg width="28" height="28" viewBox="0 0 28 28" fill="none" xmlns="http://www.w3.org/2000/svg">
<path fill-rule="evenodd" clip-rule="evenodd" d="M14 4.40002C13.7165 4.40002 13.4388 4.48114 13.1999 4.6338C12.964 4.78451 12.7755 4.99874 12.6561 5.25174L10.3876 9.83161C10.3831 9.84062 10.3789 9.8497 10.3748 9.85889C10.3738 9.86116 10.3722 9.86315 10.3702 9.86462C10.3681 9.86609 10.3658 9.86702 10.3633 9.86729C10.3546 9.86825 10.3459 9.86938 10.3372 9.87067L5.34227 10.6107C5.0662 10.6375 4.80293 10.7411 4.58242 10.91C4.35426 11.0848 4.18167 11.322 4.08556 11.5928C3.98945 11.8637 3.97394 12.1566 4.04091 12.4361C4.10763 12.7145 4.25333 12.9677 4.46048 13.1652L8.11682 16.693L8.12515 16.7009C8.13036 16.7058 8.13429 16.7119 8.13655 16.7187C8.13881 16.7255 8.13934 16.7327 8.13808 16.7397L8.13728 16.7444L7.266 21.8434C7.21813 22.1198 7.24844 22.4053 7.35391 22.6651C7.45952 22.9254 7.63608 23.1508 7.86346 23.3157C8.09087 23.4804 8.35996 23.5782 8.64015 23.5976C8.91978 23.617 9.19925 23.5577 9.44689 23.4266L9.44839 23.4257L13.9488 21.0472C13.9649 21.0402 13.9824 21.0365 14 21.0365C14.0177 21.0365 14.0351 21.0402 14.0513 21.0472L18.5516 23.4257C18.7994 23.5573 19.0799 23.6172 19.3598 23.5976C19.6401 23.5782 19.9091 23.4804 20.1365 23.3157C20.364 23.1508 20.5404 22.9254 20.646 22.6651C20.7515 22.4053 20.7821 22.1212 20.7342 21.845L20.7341 21.8434L19.8627 16.7444L19.862 16.7397C19.8607 16.7327 19.8613 16.7255 19.8634 16.7187C19.8657 16.7119 19.8697 16.7058 19.8748 16.7009L19.8831 16.693L23.5396 13.1652C23.7467 12.9676 23.8924 12.7145 23.959 12.4361C24.026 12.1566 24.0106 11.8637 23.9144 11.5928C23.8183 11.322 23.6458 11.0848 23.4176 10.91C23.1971 10.7411 22.9338 10.6375 22.6577 10.6107L17.6628 9.87067C17.6541 9.86938 17.6454 9.86825 17.6367 9.86729C17.6342 9.86702 17.6319 9.86609 17.6298 9.86462C17.6278 9.86315 17.6262 9.86116 17.6252 9.85889C17.6212 9.8497 17.6169 9.84062 17.6124 9.83161L15.3439 5.25172C15.2245 4.99873 15.036 4.78451 14.8001 4.6338C14.5612 4.48114 14.2835 4.40002 14 4.40002Z" fill="currentColor"/>
</svg>
