<svg width="28" height="28" viewBox="0 0 28 28" fill="none" xmlns="http://www.w3.org/2000/svg">
<path d="M18.2299 25V20.7689H21.6148C22.0636 20.7689 22.4942 20.5905 22.8115 20.2732C23.1288 19.9557 23.3072 19.5253 23.3072 19.0764V12.3067C23.3069 10.6524 22.8657 9.02802 22.0291 7.60086C21.1925 6.17369 19.9905 4.99529 18.5472 4.18693C17.1039 3.37858 15.4712 2.96949 13.8172 3.00177C12.1632 3.03406 10.5477 3.50656 9.13693 4.37062C7.72622 5.23468 6.57127 6.45911 5.79095 7.91782C5.01065 9.37654 4.63321 11.0169 4.69745 12.6699C4.76171 14.323 5.26535 15.9291 6.15652 17.3228C7.04769 18.7166 8.2942 19.8476 9.76773 20.5997V25" stroke="currentColor" stroke-width="1.5" stroke-linecap="round" stroke-linejoin="round"/>
<path d="M14.4139 16.8269L11.0257 13.6928C9.17919 11.8378 11.8728 8.24631 14.4139 11.1517C16.9551 8.25479 19.6741 11.8463 17.8021 13.6928L14.4139 16.8269Z" stroke="currentColor" stroke-width="1.5" stroke-linecap="round" stroke-linejoin="round"/>
</svg>
