<svg width="28" height="28" viewBox="0 0 28 28" fill="none" xmlns="http://www.w3.org/2000/svg">
<path d="M2 13C2 14.5759 2.31039 16.1363 2.91345 17.5922C3.5165 19.0481 4.40042 20.371 5.51472 21.4853C6.62902 22.5996 7.95189 23.4835 9.4078 24.0866C10.8637 24.6896 12.4241 25 14 25C15.5759 25 17.1363 24.6896 18.5922 24.0866C20.0481 23.4835 21.371 22.5996 22.4853 21.4853C23.5996 20.371 24.4835 19.0481 25.0866 17.5922C25.6896 16.1363 26 14.5759 26 13C26 11.4241 25.6896 9.86371 25.0866 8.4078C24.4835 6.95189 23.5996 5.62902 22.4853 4.51472C21.371 3.40042 20.0481 2.5165 18.5922 1.91345C17.1363 1.31039 15.5759 1 14 1C12.4241 1 10.8637 1.31039 9.4078 1.91345C7.95189 2.5165 6.62902 3.40042 5.51472 4.51472C4.40042 5.62902 3.5165 6.95189 2.91345 8.4078C2.31039 9.86371 2 11.4241 2 13Z" stroke="currentColor" stroke-width="1.5" stroke-linecap="round" stroke-linejoin="round"/>
<path d="M6.36916 22.2618L4 27" stroke="currentColor" stroke-width="1.5" stroke-linecap="round" stroke-linejoin="round"/>
<path d="M21.6309 22.2618L24.0001 27" stroke="currentColor" stroke-width="1.5" stroke-linecap="round" stroke-linejoin="round"/>
<path d="M6.5 13C6.5 14.9891 7.29018 16.8968 8.6967 18.3033C10.1032 19.7098 12.0109 20.5 14 20.5C15.9891 20.5 17.8968 19.7098 19.3033 18.3033C20.7098 16.8968 21.5 14.9891 21.5 13C21.5 11.0109 20.7098 9.10322 19.3033 7.6967C17.8968 6.29018 15.9891 5.5 14 5.5C12.0109 5.5 10.1032 6.29018 8.6967 7.6967C7.29018 9.10322 6.5 11.0109 6.5 13Z" stroke="currentColor" stroke-width="1.5" stroke-linecap="round" stroke-linejoin="round"/>
<path d="M11 13C11 13.394 11.0776 13.7841 11.2284 14.1481C11.3791 14.512 11.6001 14.8427 11.8787 15.1213C12.1573 15.3999 12.488 15.6209 12.8519 15.7716C13.2159 15.9224 13.606 16 14 16C14.394 16 14.7841 15.9224 15.1481 15.7716C15.512 15.6209 15.8427 15.3999 16.1213 15.1213C16.3999 14.8427 16.6209 14.512 16.7716 14.1481C16.9224 13.7841 17 13.394 17 13C17 12.606 16.9224 12.2159 16.7716 11.8519C16.6209 11.488 16.3999 11.1573 16.1213 10.8787C15.8427 10.6001 15.512 10.3791 15.1481 10.2284C14.7841 10.0776 14.394 10 14 10C13.606 10 13.2159 10.0776 12.8519 10.2284C12.488 10.3791 12.1573 10.6001 11.8787 10.8787C11.6001 11.1573 11.3791 11.488 11.2284 11.8519C11.0776 12.2159 11 12.606 11 13Z" stroke="currentColor" stroke-width="1.5" stroke-linecap="round" stroke-linejoin="round"/>
</svg>
