<svg width="28" height="28" viewBox="0 0 28 28" fill="none" xmlns="http://www.w3.org/2000/svg">
<g clip-path="url(#clip0_291_12113)">
<path d="M14 27C6.8203 27 1 21.1798 1 14C1 6.8203 6.8203 1 14 1C21.1798 1 27 6.8203 27 14C27 21.1798 21.1798 27 14 27Z" stroke="currentColor" stroke-width="1.5" stroke-linecap="round" stroke-linejoin="round"/>
<path d="M6.5 10.5L10 9" stroke="currentColor" stroke-width="1.5" stroke-linecap="round" stroke-linejoin="round"/>
<path d="M6.5 17.5L10 19" stroke="currentColor" stroke-width="1.5" stroke-linecap="round" stroke-linejoin="round"/>
<path d="M21.5 10.5L18 9" stroke="currentColor" stroke-width="1.5" stroke-linecap="round" stroke-linejoin="round"/>
<path d="M21.5 17.5L18 19" stroke="currentColor" stroke-width="1.5" stroke-linecap="round" stroke-linejoin="round"/>
<path d="M5 23.3808C7.46534 21.015 9 17.6867 9 14C9 10.3133 7.46534 6.985 5 4.61914" stroke="currentColor" stroke-width="1.5" stroke-linejoin="round"/>
<path d="M23 23.3808C20.5346 21.015 19 17.6867 19 14C19 10.3133 20.5346 6.985 23 4.61914" stroke="currentColor" stroke-width="1.5" stroke-linejoin="round"/>
</g>
<defs>
<clipPath id="clip0_291_12113">
<rect width="28" height="28" fill="white"/>
</clipPath>
</defs>
</svg>
