<svg width="28" height="28" viewBox="0 0 28 28" fill="none" xmlns="http://www.w3.org/2000/svg">
<path d="M1 6V22" stroke="currentColor" stroke-width="1.5" stroke-linecap="round" stroke-linejoin="round"/>
<path d="M6 6V22" stroke="currentColor" stroke-width="1.5" stroke-linecap="round" stroke-linejoin="round"/>
<path d="M22 12C21.4478 12 21 11.5523 21 11C21 10.4477 21.4478 10 22 10C22.5522 10 23 10.4477 23 11C23 11.5523 22.5522 12 22 12Z" stroke="currentColor" stroke-width="1.5" stroke-linecap="round" stroke-linejoin="round"/>
<path d="M11 8C11 6.89544 11.8954 6 13 6H25C26.1046 6 27 6.89544 27 8V20C27 21.1046 26.1046 22 25 22H13C11.8954 22 11 21.1046 11 20V8Z" stroke="currentColor" stroke-width="1.5" stroke-linejoin="round"/>
<path d="M11 17L15.5 12.5L25 22" stroke="currentColor" stroke-width="1.5" stroke-linecap="round" stroke-linejoin="round"/>
</svg>
