<svg width="28" height="28" viewBox="0 0 28 28" fill="none" xmlns="http://www.w3.org/2000/svg">
<path d="M1 17H19V21C19 23.2092 17.2091 25 15 25H5C2.79086 25 1 23.2092 1 21V17Z" stroke="currentColor" stroke-width="1.5" stroke-linejoin="round"/>
<path d="M19 17C19 15.2369 20.2 13.7 21.9104 13.2724L27 12" stroke="currentColor" stroke-width="1.5" stroke-linecap="round" stroke-linejoin="round"/>
<path d="M7 3V3.37868C7 4.73694 7.53956 6.03956 8.5 7C9.46044 7.96044 10 9.26306 10 10.6213V11" stroke="currentColor" stroke-width="1.5" stroke-linecap="round" stroke-linejoin="round"/>
<path d="M1 3V3.37868C1 4.73694 1.53957 6.03956 2.5 7C3.46044 7.96044 4 9.26306 4 10.6213V11" stroke="currentColor" stroke-width="1.5" stroke-linecap="round" stroke-linejoin="round"/>
<path d="M13 3V3.37868C13 4.73694 13.5396 6.03956 14.5 7C15.4604 7.96044 16 9.26306 16 10.6213V11" stroke="currentColor" stroke-width="1.5" stroke-linecap="round" stroke-linejoin="round"/>
</svg>
