<svg width="28" height="28" viewBox="0 0 28 28" fill="none" xmlns="http://www.w3.org/2000/svg">
<path d="M5.37988 17.14L26 5" stroke="currentColor" stroke-width="1.5" stroke-linecap="round" stroke-linejoin="round"/>
<path d="M6.5 26C8.98528 26 11 23.9852 11 21.5C11 19.0147 8.98528 17 6.5 17C4.01472 17 2 19.0147 2 21.5C2 23.9852 4.01472 26 6.5 26Z" stroke="currentColor" stroke-width="1.5" stroke-linecap="round" stroke-linejoin="round"/>
<path d="M5.37988 10.86L26 23" stroke="currentColor" stroke-width="1.5" stroke-linecap="round" stroke-linejoin="round"/>
<path d="M6.5 2C8.98528 2 11 4.01472 11 6.5C11 8.98528 8.98528 11 6.5 11C4.01472 11 2 8.98528 2 6.5C2 4.01472 4.01472 2 6.5 2Z" stroke="currentColor" stroke-width="1.5" stroke-linecap="round" stroke-linejoin="round"/>
</svg>
