<svg width="28" height="28" viewBox="0 0 28 28" fill="none" xmlns="http://www.w3.org/2000/svg">
<g clip-path="url(#clip0_286_9825)">
<path d="M10.0933 19.6694C7.62216 22.1568 3.42274 22.9804 1 20.4932C4.23032 17.1497 1 15.5346 3.42274 13.1118C3.84814 12.638 4.36572 12.2558 4.94382 11.9887C5.52194 11.7216 6.14842 11.5753 6.78502 11.5585C7.42162 11.5418 8.05494 11.655 8.6463 11.8913C9.23764 12.1276 9.7746 12.482 10.2244 12.9328C10.6741 13.3837 11.0272 13.9215 11.262 14.5134C11.4969 15.1054 11.6086 15.739 11.5903 16.3755C11.572 17.0121 11.424 17.6382 11.1556 18.2156C10.8871 18.7931 10.5037 19.3097 10.0287 19.734L10.0933 19.6694Z" stroke="currentColor" stroke-width="1.5" stroke-linecap="round" stroke-linejoin="round"/>
<path d="M7.78516 11.6278L16.3534 2.07206C17.5713 0.702901 19.7698 0.635117 21.0698 1.92669C22.362 3.22666 22.294 5.42518 20.9244 6.64296L11.4649 15.1134" stroke="currentColor" stroke-width="1.5" stroke-linecap="round" stroke-linejoin="round"/>
<path d="M15 17.5L21 14L27 17.5V23.5L21 27L15 23.5V17.5Z" stroke="currentColor" stroke-width="1.5" stroke-linecap="round" stroke-linejoin="round"/>
<path d="M20 20.5C20 20.7652 20.1054 21.0196 20.2929 21.2071C20.4804 21.3946 20.7348 21.5 21 21.5C21.2652 21.5 21.5196 21.3946 21.7071 21.2071C21.8946 21.0196 22 20.7652 22 20.5C22 20.2348 21.8946 19.9804 21.7071 19.7929C21.5196 19.6054 21.2652 19.5 21 19.5C20.7348 19.5 20.4804 19.6054 20.2929 19.7929C20.1054 19.9804 20 20.2348 20 20.5Z" stroke="currentColor" stroke-width="1.5" stroke-linecap="round" stroke-linejoin="round"/>
</g>
<defs>
<clipPath id="clip0_286_9825">
<rect width="28" height="28" fill="white"/>
</clipPath>
</defs>
</svg>
