<svg width="28" height="28" viewBox="0 0 28 28" fill="none" xmlns="http://www.w3.org/2000/svg">
<path d="M2 22C2 23.0609 2.42143 24.0783 3.17157 24.8284C3.92172 25.5786 4.93913 26 6 26C7.06087 26 8.07828 25.5786 8.82843 24.8284C9.57857 24.0783 10 23.0609 10 22C10 20.9391 9.57857 19.9217 8.82843 19.1716C8.07828 18.4214 7.06087 18 6 18C4.93913 18 3.92172 18.4214 3.17157 19.1716C2.42143 19.9217 2 20.9391 2 22Z" stroke="currentColor" stroke-width="1.5" stroke-linejoin="round"/>
<path d="M18 22C18 23.0609 18.4214 24.0783 19.1716 24.8284C19.9217 25.5786 20.9391 26 22 26C23.0609 26 24.0783 25.5786 24.8284 24.8284C25.5786 24.0783 26 23.0609 26 22C26 20.9391 25.5786 19.9217 24.8284 19.1716C24.0783 18.4214 23.0609 18 22 18C20.9391 18 19.9217 18.4214 19.1716 19.1716C18.4214 19.9217 18 20.9391 18 22Z" stroke="currentColor" stroke-width="1.5" stroke-linejoin="round"/>
<path d="M14 24V17.677C14 17.2681 13.7511 16.9004 13.3714 16.7486L8.32988 14.7319C7.56982 14.4279 7.47708 13.3893 8.17128 12.9555L13.6365 9.53973C14.1108 9.24325 14.7361 9.39355 15.024 9.87323L17.5 14H23" stroke="currentColor" stroke-width="1.5" stroke-linecap="round" stroke-linejoin="round"/>
<path d="M19.5 8C17.8431 8 16.5 6.65686 16.5 5C16.5 3.34314 17.8431 2 19.5 2C21.1568 2 22.5 3.34314 22.5 5C22.5 6.65686 21.1568 8 19.5 8Z" stroke="currentColor" stroke-width="1.5" stroke-linecap="round" stroke-linejoin="round"/>
</svg>
