<svg width="28" height="28" viewBox="0 0 28 28" fill="none" xmlns="http://www.w3.org/2000/svg">
<path d="M5.6923 26C7.73152 26 9.38462 24.3468 9.38462 22.3076C9.38462 20.2684 7.73152 18.6154 5.6923 18.6154C3.6531 18.6154 2 20.2684 2 22.3076C2 24.3468 3.6531 26 5.6923 26Z" stroke="currentColor" stroke-width="1.5" stroke-linecap="round" stroke-linejoin="round"/>
<path d="M22.3075 21.3846C24.3467 21.3846 25.9999 19.7315 25.9999 17.6923C25.9999 15.6531 24.3467 14 22.3075 14C20.2683 14 18.6152 15.6531 18.6152 17.6923C18.6152 19.7315 20.2683 21.3846 22.3075 21.3846Z" stroke="currentColor" stroke-width="1.5" stroke-linecap="round" stroke-linejoin="round"/>
<path d="M26.0001 17.6229V2.93168C25.9993 2.78832 25.9661 2.64706 25.9031 2.51876C25.8401 2.39046 25.7489 2.27856 25.6365 2.19166C25.5241 2.10478 25.3937 2.04522 25.2551 2.01758C25.1165 1.98994 24.9735 1.99495 24.8371 2.03222L10.0678 6.19224C9.87267 6.24558 9.70015 6.36246 9.57675 6.52496C9.45335 6.68744 9.38591 6.88654 9.38477 7.0917V22.3076" stroke="currentColor" stroke-width="1.5" stroke-linecap="round" stroke-linejoin="round"/>
<path d="M9.38477 12.1537L26.0001 7.53833" stroke="currentColor" stroke-width="1.5" stroke-linecap="round" stroke-linejoin="round"/>
</svg>
