<svg width="28" height="28" viewBox="0 0 28 28" fill="none" xmlns="http://www.w3.org/2000/svg">
<path d="M16.4181 10.7692C17.3103 10.7692 18.0335 10.046 18.0335 9.15383C18.0335 8.26169 17.3103 7.53845 16.4181 7.53845C15.526 7.53845 14.8027 8.26169 14.8027 9.15383C14.8027 10.046 15.526 10.7692 16.4181 10.7692Z" stroke="currentColor" stroke-width="1.5" stroke-linecap="round" stroke-linejoin="round"/>
<path d="M9.9571 18.8461C10.4032 18.8461 10.7648 18.4845 10.7648 18.0384C10.7648 17.5924 10.4032 17.2307 9.9571 17.2307C9.51103 17.2307 9.14941 17.5924 9.14941 18.0384C9.14941 18.4845 9.51103 18.8461 9.9571 18.8461Z" stroke="currentColor" stroke-width="1.5" stroke-linecap="round" stroke-linejoin="round"/>
<path d="M9.95718 13.1923C10.8493 13.1923 11.5726 12.469 11.5726 11.5769C11.5726 10.6848 10.8493 9.96152 9.95718 9.96152C9.06504 9.96152 8.3418 10.6848 8.3418 11.5769C8.3418 12.469 9.06504 13.1923 9.95718 13.1923Z" stroke="currentColor" stroke-width="1.5" stroke-linecap="round" stroke-linejoin="round"/>
<path d="M18.066 22.5292C18.048 22.2158 17.9391 21.9145 17.7526 21.6621C17.5662 21.4097 17.3102 21.217 17.016 21.1077C16.2854 20.8675 15.6644 20.3746 15.2646 19.7176C14.8649 19.0605 14.7127 18.2825 14.8353 17.5232C14.958 16.764 15.3475 16.0734 15.9337 15.5756C16.52 15.0779 17.2646 14.8056 18.0337 14.8077H21.0545C21.5725 14.8091 22.0835 14.6859 22.5438 14.4485C23.0044 14.2111 23.4011 13.8664 23.7005 13.4435C23.9998 13.0207 24.193 12.532 24.2639 12.0188C24.3346 11.5055 24.281 10.9828 24.1075 10.4946C23.4651 8.68048 22.3363 7.07783 20.8446 5.86177C19.353 4.64569 17.5558 3.86298 15.6494 3.59914C13.743 3.3353 11.8008 3.60049 10.035 4.36572C8.2691 5.13095 6.74752 6.36679 5.63646 7.93823C4.5254 9.50966 3.86761 11.3562 3.73494 13.2762C3.60228 15.1962 3.99985 17.1156 4.88421 18.825C5.76858 20.5342 7.10573 21.9677 8.74956 22.9684C10.3934 23.9693 12.2807 24.4992 14.2052 24.5C15.1557 24.5025 16.1018 24.3722 17.016 24.1123C17.3518 24.0183 17.6425 23.8065 17.8353 23.5159C18.028 23.2253 18.1099 22.8752 18.066 22.5292Z" stroke="currentColor" stroke-width="1.5" stroke-linecap="round" stroke-linejoin="round"/>
</svg>
