<svg width="28" height="28" viewBox="0 0 28 28" fill="none" xmlns="http://www.w3.org/2000/svg">
<path d="M27 10C27 9.46956 26.7892 8.96086 26.4142 8.58578C26.0392 8.21072 25.5304 8 25 8H21.5L18.5 3H9.5L6.5 8H3C2.46956 8 1.96086 8.21072 1.58579 8.58578C1.21071 8.96086 1 9.46956 1 10V23C1 23.5304 1.21071 24.0392 1.58579 24.4142C1.96086 24.7892 2.46956 25 3 25H25C25.5304 25 26.0392 24.7892 26.4142 24.4142C26.7892 24.0392 27 23.5304 27 23V10Z" stroke="black" stroke-width="1.5" stroke-linecap="round" stroke-linejoin="round"/>
<path d="M14 20.5624C16.7614 20.5624 19 18.3239 19 15.5625C19 12.8011 16.7614 10.5625 14 10.5625C11.2386 10.5625 9 12.8011 9 15.5625C9 18.3239 11.2386 20.5624 14 20.5624Z" stroke="black" stroke-width="1.5" stroke-linecap="round" stroke-linejoin="round"/>
</svg>
