<svg width="28" height="28" viewBox="0 0 28 28" fill="none" xmlns="http://www.w3.org/2000/svg">
<path d="M3.31708 9.05875L10.8238 1.55205C11.5651 0.810695 12.7671 0.810695 13.5084 1.55205C13.9573 2.00086 14.1521 2.64428 14.0276 3.26668L13.6905 4.9522C13.5964 5.4225 13.7436 5.9087 14.0828 6.24784C14.3909 6.55598 14.8224 6.70734 15.2555 6.65922L16.7524 6.4929C17.3269 6.42906 17.8993 6.62986 18.3081 7.0386C18.5589 7.28938 18.7346 7.60524 18.8154 7.95058L20.7403 16.1761C20.9101 16.902 21.2795 17.5659 21.8065 18.0931L24.8495 21.136C26.1909 22.4774 26.1909 24.652 24.8495 25.9932C24.2055 26.6374 23.3319 26.9992 22.4209 26.9992H18.9144C16.7926 26.9992 14.7578 26.1564 13.2575 24.656L3.31708 14.7156C1.75498 13.1535 1.75498 10.6208 3.31708 9.05875Z" stroke="black" stroke-width="1.5" stroke-linecap="round" stroke-linejoin="round"/>
<path d="M21.0955 27.0002L7.15491 13.0596C6.40483 12.3095 5.38753 11.8881 4.32677 11.888L2.27441 11.8878" stroke="black" stroke-width="1.5" stroke-linecap="round" stroke-linejoin="round"/>
</svg>
