<svg width="28" height="28" viewBox="0 0 28 28" fill="none" xmlns="http://www.w3.org/2000/svg">
<path d="M3 17V1H13V5.6115C13 7.56684 14.4137 9.2356 16.3424 9.55706L19.9864 10.1644C22.8796 10.6466 25 13.1497 25 16.0828V17C25 18.1046 24.1046 19 23 19H5C3.89544 19 3 18.1046 3 17Z" stroke="black" stroke-width="1.5" stroke-linecap="round" stroke-linejoin="round"/>
<path d="M3 25C3 25.5304 3.21071 26.0391 3.58579 26.4142C3.96086 26.7893 4.46957 27 5 27C5.53043 27 6.03914 26.7893 6.41421 26.4142C6.78929 26.0391 7 25.5304 7 25C7 24.4696 6.78929 23.9609 6.41421 23.5858C6.03914 23.2107 5.53043 23 5 23C4.46957 23 3.96086 23.2107 3.58579 23.5858C3.21071 23.9609 3 24.4696 3 25Z" stroke="black" stroke-width="1.5"/>
<path d="M21 25C21 25.5304 21.2107 26.0391 21.5858 26.4142C21.9609 26.7893 22.4696 27 23 27C23.5304 27 24.0391 26.7893 24.4142 26.4142C24.7893 26.0391 25 25.5304 25 25C25 24.4696 24.7893 23.9609 24.4142 23.5858C24.0391 23.2107 23.5304 23 23 23C22.4696 23 21.9609 23.2107 21.5858 23.5858C21.2107 23.9609 21 24.4696 21 25Z" stroke="black" stroke-width="1.5"/>
<path d="M12 25C12 25.5304 12.2107 26.0391 12.5858 26.4142C12.9609 26.7893 13.4696 27 14 27C14.5304 27 15.0391 26.7893 15.4142 26.4142C15.7893 26.0391 16 25.5304 16 25C16 24.4696 15.7893 23.9609 15.4142 23.5858C15.0391 23.2107 14.5304 23 14 23C13.4696 23 12.9609 23.2107 12.5858 23.5858C12.2107 23.9609 12 24.4696 12 25Z" stroke="black" stroke-width="1.5"/>
<path d="M10 5H13" stroke="black" stroke-width="1.5" stroke-linecap="round" stroke-linejoin="round"/>
<path d="M10 9H14.6641" stroke="black" stroke-width="1.5" stroke-linecap="round" stroke-linejoin="round"/>
</svg>
