<svg width="28" height="28" viewBox="0 0 28 28" fill="none" xmlns="http://www.w3.org/2000/svg">
<path d="M20 7C18.3431 7 17 5.65686 17 4C17 2.34314 18.3431 1 20 1C21.6568 1 23 2.34314 23 4C23 5.65686 21.6568 7 20 7Z" stroke="black" stroke-width="1.5" stroke-linecap="round" stroke-linejoin="round"/>
<path d="M16.9562 9.77686L13.8509 13.7645C13.1263 14.6951 13.3601 16.0474 14.3552 16.6806L17.0733 18.4104C17.6502 18.7775 17.9996 19.4139 17.9996 20.0978V24.9998" stroke="black" stroke-width="1.5" stroke-linecap="round" stroke-linejoin="round"/>
<path d="M11 18L11.7045 20.4656C11.889 21.1114 11.737 21.8068 11.3 22.3168L9 25" stroke="black" stroke-width="1.5" stroke-linecap="round" stroke-linejoin="round"/>
<path d="M3 23L4.41422 24.4142C4.78928 24.7892 5.298 25 5.82842 25H21.1716C21.702 25 22.2108 24.7892 22.5858 24.4142L24 23" stroke="black" stroke-width="1.5" stroke-linecap="round" stroke-linejoin="round"/>
<path d="M7.5 27C7.77614 27 8 26.7762 8 26.5C8 26.2238 7.77614 26 7.5 26" stroke="black" stroke-width="1.5"/>
<path d="M7.5 27C7.22386 27 7 26.7762 7 26.5C7 26.2238 7.22386 26 7.5 26" stroke="black" stroke-width="1.5"/>
<path d="M19.5 27C19.7761 27 20 26.7762 20 26.5C20 26.2238 19.7761 26 19.5 26" stroke="black" stroke-width="1.5"/>
<path d="M19.5 27C19.2239 27 19 26.7762 19 26.5C19 26.2238 19.2239 26 19.5 26" stroke="black" stroke-width="1.5"/>
<path d="M8.5 12L10.9142 9.58578C11.2893 9.21072 11.798 9 12.3284 9H14.7352C16.1403 9 17.4423 9.7372 18.1652 10.942L19.4174 13.029C19.7788 13.6314 20.4298 14 21.1324 14H25" stroke="black" stroke-width="1.5" stroke-linecap="round" stroke-linejoin="round"/>
</svg>
