<svg width="28" height="28" viewBox="0 0 28 28" fill="none" xmlns="http://www.w3.org/2000/svg">
<path d="M18.8387 8.84539C17.5007 8.84539 16.416 7.76072 16.416 6.42269C16.416 5.08467 17.5007 4 18.8387 4C20.1767 4 21.2614 5.08467 21.2614 6.42269C21.2614 7.76072 20.1767 8.84539 18.8387 8.84539Z" stroke="currentColor" stroke-width="1.5" stroke-linecap="round" stroke-linejoin="round"/>
<path d="M16.3809 11.0879L13.8732 14.3082C13.288 15.0597 13.4768 16.1518 14.2804 16.6631L16.4755 18.06C16.9414 18.3565 17.2235 18.8704 17.2235 19.4227V24.1891" stroke="currentColor" stroke-width="1.5" stroke-linecap="round" stroke-linejoin="round"/>
<path d="M11.5711 17.7286V19.1531C11.5711 19.7648 11.2254 20.3241 10.6783 20.5977L8.34082 21.7664" stroke="currentColor" stroke-width="1.5" stroke-linecap="round" stroke-linejoin="round"/>
<path d="M5.11035 19.3777L5.9179 20.7764C6.13208 21.1474 6.48486 21.418 6.89862 21.529L19.647 24.945C20.0608 25.0558 20.5017 24.9978 20.8726 24.7837L22.2714 23.9761" stroke="currentColor" stroke-width="1.5" stroke-linecap="round" stroke-linejoin="round"/>
<path d="M9.55176 12.8832L11.5014 10.9336C11.8043 10.6307 12.2151 10.4605 12.6435 10.4605H14.5871C15.7218 10.4605 16.7733 11.0558 17.357 12.0288L18.3683 13.7142C18.6602 14.2007 19.1858 14.4983 19.7532 14.4983H22.8766" stroke="currentColor" stroke-width="1.5" stroke-linecap="round" stroke-linejoin="round"/>
</svg>
