<svg width="28" height="28" viewBox="0 0 28 28" fill="none" xmlns="http://www.w3.org/2000/svg">
<path d="M15.069 22.1246C9.4605 17.936 3.45646 15.9481 1.66133 18.3518C0.620776 19.7451 1.39653 22.0754 3.3249 24.6042C3.46186 24.5144 3.59032 24.4102 3.70788 24.2926L4.29366 23.7068C4.74642 23.2542 5.36048 22.9998 6.00078 22.9998C6.64106 22.9998 7.25514 23.2542 7.70788 23.7068L8.29366 24.2926C8.74642 24.7454 9.36048 24.9998 10.0008 24.9998C10.6411 24.9998 11.2551 24.7454 11.7079 24.2926L12.2937 23.7068C12.7464 23.2542 13.3605 22.9998 14.0008 22.9998C14.6411 22.9998 15.2551 23.2542 15.7079 23.7068L16.2937 24.2926C16.7464 24.7454 17.3605 24.9998 18.0008 24.9998C18.14 24.9998 18.2779 24.9878 18.4132 24.9642C17.4166 23.9962 16.2902 23.0366 15.069 22.1246Z" stroke="black" stroke-width="1.5" stroke-linecap="round" stroke-linejoin="round"/>
<path d="M1 24.783C1.31107 24.9244 1.65165 24.9998 2 24.9998C2.64028 24.9998 3.25436 24.7454 3.7071 24.2926L4.2929 23.7068C4.74564 23.2542 5.35972 22.9998 6 22.9998C6.64028 22.9998 7.25436 23.2542 7.7071 23.7068L8.2929 24.2926C8.74564 24.7454 9.35972 24.9998 10 24.9998C10.6403 24.9998 11.2544 24.7454 11.7071 24.2926L12.2929 23.7068C12.7456 23.2542 13.3597 22.9998 14 22.9998C14.6403 22.9998 15.2544 23.2542 15.7071 23.7068L16.2929 24.2926C16.7456 24.7454 17.3597 24.9998 18 24.9998C18.6403 24.9998 19.2544 24.7454 19.7071 24.2926L20.2928 23.7068C20.7456 23.2542 21.3598 22.9998 22 22.9998C22.6402 22.9998 23.2544 23.2542 23.7072 23.7068L24.2928 24.2924C24.7456 24.7452 25.3598 24.9996 26 24.9996C26.3484 24.9996 26.689 24.9242 27 24.7826" stroke="black" stroke-width="1.5" stroke-linecap="round" stroke-linejoin="round"/>
<path d="M16.9996 23.9998V16.6769C16.9996 16.268 16.7506 15.9003 16.371 15.7485L11.327 13.7308C10.5674 13.427 10.4741 12.3893 11.1674 11.955L17.2842 8.12262" stroke="black" stroke-width="1.5" stroke-linecap="round" stroke-linejoin="round"/>
<path d="M26.0006 13H22.7654C21.3602 13 20.0582 12.2628 19.3353 11.058L17.7919 8.4855C17.6111 8.1843 17.2856 8 16.9344 8H10.7922C10.2653 8 9.73982 8.05204 9.22322 8.15536L5 9" stroke="black" stroke-width="1.5" stroke-linecap="round" stroke-linejoin="round"/>
<path d="M9.5 18.775V13.5542C9.5 13.2095 9.67762 12.889 9.97 12.7062L13.5 10.5" stroke="black" stroke-width="1.5" stroke-linecap="round" stroke-linejoin="round"/>
<path d="M22.5 7C20.8432 7 19.5 5.65686 19.5 4C19.5 2.34314 20.8432 1 22.5 1C24.1568 1 25.5 2.34314 25.5 4C25.5 5.65686 24.1568 7 22.5 7Z" stroke="black" stroke-width="1.5" stroke-linecap="round" stroke-linejoin="round"/>
</svg>
