<svg width="28" height="28" viewBox="0 0 28 28" fill="none" xmlns="http://www.w3.org/2000/svg">
<path d="M20 15C18.3431 15 17 13.6569 17 12C17 10.3431 18.3431 9 20 9C21.6568 9 23 10.3431 23 12C23 13.6569 21.6568 15 20 15Z" stroke="black" stroke-width="1.5" stroke-linecap="round" stroke-linejoin="round"/>
<path d="M18.0001 3L13.2427 7.75738C10.8996 10.1005 10.8996 13.8995 13.2427 16.2427L17 20" stroke="black" stroke-width="1.5" stroke-linecap="round" stroke-linejoin="round"/>
<path d="M12 15L8 19" stroke="black" stroke-width="1.5" stroke-linecap="round" stroke-linejoin="round"/>
<path d="M1 24.783C1.31107 24.9244 1.65165 24.9998 2 24.9998C2.64028 24.9998 3.25436 24.7454 3.7071 24.2926L4.2929 23.7068C4.74564 23.2542 5.35972 22.9998 6 22.9998C6.64028 22.9998 7.25436 23.2542 7.7071 23.7068L8.2929 24.2926C8.74564 24.7454 9.35972 24.9998 10 24.9998C10.6403 24.9998 11.2544 24.7454 11.7071 24.2926L12.2929 23.7068C12.7456 23.2542 13.3597 22.9998 14 22.9998C14.6403 22.9998 15.2544 23.2542 15.7071 23.7068L16.2929 24.2926C16.7456 24.7454 17.3597 24.9998 18 24.9998C18.6403 24.9998 19.2544 24.7454 19.7071 24.2926L20.2928 23.7068C20.7456 23.2542 21.3598 22.9998 22 22.9998C22.6402 22.9998 23.2544 23.2542 23.7072 23.7068L24.2928 24.2924C24.7456 24.7452 25.3598 24.9996 26 24.9996C26.3484 24.9996 26.689 24.9242 27 24.7826" stroke="black" stroke-width="1.5" stroke-linecap="round" stroke-linejoin="round"/>
</svg>
