<svg width="28" height="28" viewBox="0 0 28 28" fill="none" xmlns="http://www.w3.org/2000/svg">
<path d="M14 3L12.6009 3.93272C10.3413 5.43918 9.03521 7.95882 9.03809 10.5971C11.9497 11.7932 14 14.6572 14 18C14 14.6572 16.0503 11.7932 18.9619 10.597C18.9648 7.95882 17.6588 5.43918 15.3991 3.93272L14 3Z" stroke="black" stroke-width="1.5" stroke-linecap="round" stroke-linejoin="round"/>
<path d="M2 10V12C2 16.4183 5.58172 20 10 20H14V18C14 13.5817 10.4183 10 6 10H2Z" stroke="black" stroke-width="1.5" stroke-linecap="round" stroke-linejoin="round"/>
<path d="M14 18V20H18C22.4182 20 26 16.4183 26 12V10H22C17.5817 10 14 13.5817 14 18Z" stroke="black" stroke-width="1.5" stroke-linecap="round" stroke-linejoin="round"/>
<path d="M1.40956 20C1.1422 20.3196 1 20.6548 1 21C1 23.2092 6.8203 25 14 25C21.1798 25 27 23.2092 27 21C27 20.6548 26.8578 20.3196 26.5904 20" stroke="black" stroke-width="1.5" stroke-linecap="round" stroke-linejoin="round"/>
</svg>
