<svg width="28" height="28" viewBox="0 0 28 28" fill="none" xmlns="http://www.w3.org/2000/svg">
<path d="M14 7C12.3431 7 11 5.65686 11 4C11 2.34314 12.3431 1 14 1C15.6569 1 17 2.34314 17 4C17 5.65686 15.6569 7 14 7Z" stroke="black" stroke-width="1.5" stroke-linecap="round" stroke-linejoin="round"/>
<path d="M15 23L11.0899 25.8438C10.0566 26.5952 8.81178 27 7.5341 27H5.16312C3.96846 27 3 26.0316 3 24.8368C3 24.0176 3.46292 23.2686 4.19574 22.9022L8.89442 20.5528C9.572 20.214 10 19.5215 10 18.7639V18.5" stroke="black" stroke-width="1.5" stroke-linecap="round" stroke-linejoin="round"/>
<path d="M18.0002 18.5V18.7639C18.0002 19.5215 18.4282 20.214 19.1058 20.5528L23.8044 22.9022C24.5372 23.2686 25.0002 24.0176 25.0002 24.8368C25.0002 26.0316 24.0318 27 22.837 27H20.466C19.1884 27 17.9436 26.5952 16.9103 25.8438L16.8037 25.7662" stroke="black" stroke-width="1.5" stroke-linecap="round" stroke-linejoin="round"/>
<path d="M3 18L7 15.5L8.04254 12.633C8.61736 11.0523 10.1197 10 11.8017 10H14" stroke="black" stroke-width="1.5" stroke-linecap="round" stroke-linejoin="round"/>
<path d="M25 18L21 15.5L19.9575 12.633C19.3826 11.0523 17.8803 10 16.1983 10H14" stroke="black" stroke-width="1.5" stroke-linecap="round" stroke-linejoin="round"/>
</svg>
